<svg width="16" height="16" viewBox="0 0 16 16" fill="none" xmlns="http://www.w3.org/2000/svg">
<g clip-path="url(#clip0_102_69)">
<g clip-path="url(#clip1_102_69)">
<path d="M14.4004 0C15.2837 0.000210925 15.9998 0.716263 16 1.59961V14.4004C15.9998 15.2837 15.2837 15.9998 14.4004 16H1.59961C0.716264 15.9998 0.000210925 15.2837 0 14.4004V1.59961C0.00021126 0.716264 0.716264 0.000211054 1.59961 0H14.4004ZM8.76562 1.64648C7.39095 1.47919 5.99824 1.76415 4.7998 2.45801C1.73947 4.22553 0.690734 8.13952 2.45801 11.2002C4.22433 14.2608 8.13737 15.3073 11.1982 13.542L11.1992 13.543C12.3997 12.852 13.3422 11.7881 13.8848 10.5137C14.2753 9.60035 14.4481 8.60875 14.3887 7.61719C14.3291 6.62513 14.0385 5.6602 13.541 4.7998C13.0447 3.93952 12.3552 3.20643 11.5264 2.65918C10.6971 2.11176 9.7512 1.76575 8.76465 1.64746L8.76562 1.64648ZM9.61426 9.62402C9.7488 10.0757 9.86704 10.5323 9.96777 10.9639C10.1078 11.5637 10.2123 12.1015 10.2812 12.4893C10.3026 12.6093 10.3194 12.7154 10.334 12.8037C8.95182 13.4765 7.40243 13.5001 6.05371 12.9736C6.54252 11.9245 7.63649 10.7998 9.00684 9.96582C9.20626 9.84447 9.40902 9.72943 9.61426 9.62402ZM8.13867 6.54688C8.35814 6.82571 8.55654 7.10618 8.7168 7.38379C8.92225 7.73971 9.1085 8.16116 9.27734 8.6123C8.99651 8.75096 8.7224 8.90163 8.45801 9.0625C7.00236 9.94828 5.72695 11.1977 5.11133 12.4941C4.41672 12.0485 3.81394 11.4359 3.37305 10.6719C2.93373 9.91104 2.70423 9.08664 2.66406 8.26562C4.30399 8.43056 6.09363 7.82776 7.58008 6.91504C7.7698 6.79853 7.9563 6.67499 8.13867 6.54688ZM10.5889 9.19531C11.5122 8.85401 12.444 8.69933 13.2822 8.79395C13.2149 9.24148 13.0923 9.68074 12.9131 10.0996L12.9121 10.1006C12.5594 10.9288 12.0035 11.6494 11.3018 12.2002C11.2308 11.8091 11.1301 11.2937 10.9971 10.7236C10.8857 10.2467 10.7497 9.72213 10.5889 9.19531ZM10.9434 3.54102C11.6354 3.99789 12.2116 4.60981 12.626 5.32812L12.627 5.3291C13.0421 6.04723 13.2843 6.85267 13.334 7.68066C13.335 7.69854 13.3341 7.7165 13.335 7.73438C12.3275 7.63324 11.2646 7.82367 10.25 8.19531C10.0676 7.71379 9.86214 7.25445 9.63184 6.85547C9.44515 6.5321 9.2194 6.21031 8.97266 5.89648C9.80328 5.17861 10.4859 4.35291 10.8877 3.50684C10.906 3.51858 10.9252 3.52903 10.9434 3.54102ZM5.23828 3.74316C5.52213 3.96764 5.91267 4.28864 6.33887 4.6709C6.7015 4.99615 7.08193 5.36059 7.44238 5.74316C7.30675 5.83618 7.16839 5.92842 7.02637 6.01562C5.62982 6.87305 4.05483 7.35812 2.71777 7.20703C2.93464 5.76917 3.73349 4.43214 5.01465 3.57031C5.07801 3.61901 5.15391 3.67645 5.23828 3.74316ZM6.03613 3.03125C6.85782 2.70582 7.7522 2.58853 8.6377 2.69629C9.0872 2.75017 9.52743 2.86168 9.94629 3.02539C9.62408 3.71756 9.03846 4.44357 8.2832 5.09668C7.86918 4.65108 7.43898 4.23724 7.04492 3.88379C6.66735 3.54515 6.31478 3.25515 6.03613 3.03125Z" fill="#6A1931"/>
</g>
</g>
<defs>
<clipPath id="clip0_102_69">
<rect width="16" height="16" fill="white"/>
</clipPath>
<clipPath id="clip1_102_69">
<rect width="16" height="16" fill="white"/>
</clipPath>
</defs>
</svg>
